HIERARCHY
ROOT Hips
{
	OFFSET 0.000000 0.000000 0.000000
	CHANNELS 6 Xposition Yposition Zposition Xrotation Yrotation Zrotation
	JOINT LeftUpLeg_virtual
	{
		OFFSET 0.000000 0.000000 0.000000
		CHANNELS 3 Xrotation Yrotation Zrotation
		JOINT LeftUpLeg
		{
			OFFSET 11.394100 -6.187798 -0.413800
			CHANNELS 3 Xrotation Yrotation Zrotation
			JOINT LeftLeg
			{
				OFFSET 0.430247 -32.302673 3.732800
				CHANNELS 3 Xrotation Yrotation Zrotation
				JOINT LeftFoot
				{
					OFFSET -0.430247 -48.264931 -6.423300
					CHANNELS 3 Xrotation Yrotation Zrotation
					JOINT LeftToeBase
					{
						OFFSET 4.230900 -16.068199 23.438400
						CHANNELS 3 Xrotation Yrotation Zrotation
						JOINT LeftToe_End
						{
							OFFSET 4.510700 0.695400 19.974600
							CHANNELS 3 Xrotation Yrotation Zrotation
							End Site
							{
								OFFSET 0 0 0
							}
						}
					}
				}
			}
		}
	}
	JOINT RightUpLeg_virtual
	{
		OFFSET 0.000000 0.000000 0.000000
		CHANNELS 3 Xrotation Yrotation Zrotation
		JOINT RightUpLeg
		{
			OFFSET -11.333700 -6.187798 -0.413800
			CHANNELS 3 Xrotation Yrotation Zrotation
			JOINT RightLeg
			{
				OFFSET -0.430392 -32.302628 3.733000
				CHANNELS 3 Xrotation Yrotation Zrotation
				JOINT RightFoot
				{
					OFFSET 0.430392 -48.264973 -6.423500
					CHANNELS 3 Xrotation Yrotation Zrotation
					JOINT RightToeBase
					{
						OFFSET -4.230900 -16.068199 23.438400
						CHANNELS 3 Xrotation Yrotation Zrotation
						JOINT RightToe_End
						{
							OFFSET -4.510700 0.695400 19.974600
							CHANNELS 3 Xrotation Yrotation Zrotation
							End Site
							{
								OFFSET 0 0 0
							}
						}
					}
				}
			}
		}
	}
	JOINT Spine_virtual
	{
		OFFSET 0.000000 0.000000 0.000000
		CHANNELS 3 Xrotation Yrotation Zrotation
		JOINT Spine
		{
			OFFSET -0.002400 12.777504 0.315300
			CHANNELS 3 Xrotation Yrotation Zrotation
			JOINT Spine1
			{
				OFFSET -0.002067 5.816869 0.032633
				CHANNELS 3 Xrotation Yrotation Zrotation
				JOINT Spine1_split
				{
					OFFSET -0.002067 5.816869 0.032633
					CHANNELS 3 Xrotation Yrotation Zrotation
					JOINT Spine2
					{
						OFFSET -0.002067 5.816869 0.032633
						CHANNELS 3 Xrotation Yrotation Zrotation
						JOINT Neck_virtual
						{
							OFFSET 0.000000 0.000000 0.000000
							CHANNELS 3 Xrotation Yrotation Zrotation
							JOINT Neck
							{
								OFFSET -0.003700 21.199493 -0.826900
								CHANNELS 3 Xrotation Yrotation Zrotation
								JOINT Head
								{
									OFFSET 0.000000 20.442200 4.834800
									CHANNELS 3 Xrotation Yrotation Zrotation
									JOINT HeadTop_End
									{
										OFFSET 0.000000 34.668396 4.968400
										CHANNELS 3 Xrotation Yrotation Zrotation
										End Site
										{
											OFFSET 0 0 0
										}
									}
								}
							}
						}
						JOINT LeftShoulder_virtual
						{
							OFFSET 0.000000 0.000000 0.000000
							CHANNELS 3 Xrotation Yrotation Zrotation
							JOINT LeftShoulder
							{
								OFFSET 3.288150 8.794197 -1.372250
								CHANNELS 3 Xrotation Yrotation Zrotation
								JOINT LeftShoulder_split
								{
									OFFSET 3.288150 8.794197 -1.372250
									CHANNELS 3 Xrotation Yrotation Zrotation
									JOINT LeftArm
									{
										OFFSET 11.953299 -2.279007 -0.146200
										CHANNELS 3 Xrotation Yrotation Zrotation
										JOINT LeftForeArm
										{
											OFFSET 18.448900 0.000000 0.000000
											CHANNELS 3 Xrotation Yrotation Zrotation
											JOINT LeftHand
											{
												OFFSET 29.527798 0.000000 0.000000
												CHANNELS 3 Xrotation Yrotation Zrotation
												End Site
												{
													OFFSET 0 0 0
												}
											}
										}
									}
								}
							}
						}
						JOINT RightShoulder_virtual
						{
							OFFSET 0.000000 0.000000 0.000000
							CHANNELS 3 Xrotation Yrotation Zrotation
							JOINT RightShoulder
							{
								OFFSET -3.249400 8.794197 -1.372250
								CHANNELS 3 Xrotation Yrotation Zrotation
								JOINT RightShoulder_split
								{
									OFFSET -3.249400 8.794197 -1.372250
									CHANNELS 3 Xrotation Yrotation Zrotation
									JOINT RightArm
									{
										OFFSET -11.953299 -2.279007 -0.146200
										CHANNELS 3 Xrotation Yrotation Zrotation
										JOINT RightForeArm
										{
											OFFSET -18.448900 0.000000 0.000000
											CHANNELS 3 Xrotation Yrotation Zrotation
											JOINT RightHand
											{
												OFFSET -29.527802 0.000000 0.000000
												CHANNELS 3 Xrotation Yrotation Zrotation
												End Site
												{
													OFFSET 0 0 0
												}
											}
										}
									}
								}
							}
						}
					}
				}
			}
		}
	}
}
MOTION
Frames: 9
Frame Time: 0.03333333
1.510663 60.407108 5.684551 0.000000 0.000000 0.000000 -2.968577 7.256051 -0.067420 -97.428004 -8.663438 9.278552 81.412904 6.427392 -0.243007 22.025280 -7.529709 -6.019403 -4.639208 0.054381 0.185687 0.000000 0.000000 0.000000 -3.373657 8.076217 0.101478 -99.429707 10.532180 -8.798201 83.158837 -4.171319 -1.737150 21.386179 1.611493 7.106259 3.133186 1.804537 0.161570 0.000000 0.000000 0.000000 -2.720960 2.445535 -0.370039 10.430091 -0.324002 -2.925996 1.958177 0.695935 -0.437326 1.232546 2.152400 -0.338088 0.000000 0.000000 0.000000 1.081729 0.326697 -0.424539 -0.888423 -4.847201 1.214323 -9.613013 -0.442150 -2.005832 0.000000 0.000000 0.000000 2.141045 -0.313022 -0.466332 0.504888 -12.240288 -5.677497 -6.695771 1.459197 -3.012890 -0.224540 -16.156275 -56.213980 6.444596 -64.725946 5.309872 0.000000 0.000000 0.000000 1.306448 0.447605 0.184504 2.873093 -5.327304 8.259377 4.457730 5.156847 0.718259 -7.338619 34.396952 63.982180 -4.264345 58.260735 -0.165759 0.000000 0.000000 0.000000 
1.388475 60.352402 5.613041 0.000000 0.000000 0.000000 -3.185195 7.042792 0.009091 -97.272706 -8.718811 9.303032 81.589451 6.367364 -0.261226 22.247437 -7.444337 -5.936907 -4.752753 0.094889 0.123974 0.000000 0.000000 0.000000 -3.690540 7.870157 0.204231 -99.409715 10.452440 -8.925071 83.548643 -4.045230 -1.795608 21.276794 1.746965 7.028759 3.433051 1.818398 0.189815 0.000000 0.000000 0.000000 -3.211929 2.549740 -0.403884 10.230357 -0.434060 -2.866379 2.236257 0.696614 -0.379756 1.174937 2.090757 -0.086951 0.000000 0.000000 0.000000 1.273538 0.280417 -0.292978 -1.059067 -4.242922 1.181427 -10.167496 -0.253032 -1.990809 0.000000 0.000000 0.000000 2.257994 -0.261878 -0.442746 0.429619 -12.202095 -5.773659 -5.827084 0.070417 -2.723837 -0.694374 -16.462368 -56.574156 6.862014 -64.135879 5.405088 0.000000 0.000000 0.000000 1.535765 0.386793 0.168913 2.800081 -4.968863 8.577200 4.157593 4.872030 0.700710 -7.158157 32.735874 62.564622 -3.582226 57.147230 -0.234542 0.000000 0.000000 0.000000 
1.241926 60.327690 5.561611 0.000000 0.000000 0.000000 -3.594867 6.816371 0.201075 -96.988625 -8.648146 9.324558 81.679773 6.423924 -0.270572 22.573874 -7.299025 -5.660520 -4.808368 0.160934 0.004511 0.000000 0.000000 0.000000 -4.132234 7.610405 0.409548 -99.210485 10.370137 -9.012294 83.808320 -3.910857 -1.920150 21.318672 1.885180 6.964203 3.462383 1.811210 0.303568 0.000000 0.000000 0.000000 -3.782347 2.491947 -0.460382 9.904161 -0.636721 -2.730179 3.000477 0.621245 -0.305894 1.026086 2.078915 0.199379 0.000000 0.000000 0.000000 1.955106 0.198876 -0.204222 -1.135300 -3.650918 1.036341 -11.911881 0.154712 -2.176852 0.000000 0.000000 0.000000 2.840155 -0.212931 -0.414186 0.319793 -12.738216 -5.926531 -5.123284 -1.329129 -2.112810 -0.598336 -17.037466 -56.259585 6.973175 -64.583441 5.436931 0.000000 0.000000 0.000000 2.340824 0.296574 0.104146 2.602388 -4.090339 9.059115 3.635981 4.719481 0.411148 -6.663132 30.568819 59.808900 -2.926335 57.885676 -0.322576 0.000000 0.000000 0.000000 
1.084099 60.374603 5.523735 0.000000 0.000000 0.000000 -4.108039 6.617702 0.478879 -96.626229 -8.483681 9.324586 81.609545 6.549653 -0.239004 22.967151 -7.135871 -5.326294 -4.838039 0.242469 -0.142571 0.000000 0.000000 0.000000 -4.577521 7.410430 0.682587 -98.869734 10.331305 -9.039859 83.811537 -3.804795 -2.083917 21.464686 1.981594 6.900054 3.256541 1.769083 0.479351 0.000000 0.000000 0.000000 -4.305790 2.219756 -0.486867 9.498109 -0.882576 -2.538154 4.182792 0.519476 -0.250719 0.881971 1.877240 0.560143 0.000000 0.000000 0.000000 3.071212 0.105708 -0.185461 -1.143540 -3.137409 0.711761 -14.694819 0.654939 -2.572872 0.000000 0.000000 0.000000 3.792529 -0.155081 -0.403617 0.172335 -13.798303 -6.092745 -4.666733 -2.277419 -1.689507 -0.159640 -17.424277 -54.785617 6.877262 -66.910268 5.498783 0.000000 0.000000 0.000000 3.628453 0.202711 -0.017273 2.311211 -2.757783 9.666975 2.967274 4.634700 -0.003276 -6.242152 28.229752 56.015782 -2.206490 61.562011 -0.489237 0.000000 0.000000 0.000000 
0.947821 60.487823 5.478127 0.000000 0.000000 0.000000 -4.630426 6.444147 0.805353 -96.276325 -8.240891 9.310605 81.429058 6.718093 -0.164714 23.405236 -7.002838 -5.077957 -4.882940 0.315406 -0.249152 0.000000 0.000000 0.000000 -4.942994 7.357004 0.990013 -98.473925 10.362465 -9.015968 83.607444 -3.764458 -2.226339 21.695852 2.021985 6.816287 3.009650 1.703583 0.646444 0.000000 0.000000 0.000000 -4.702440 1.829384 -0.420917 8.995445 -1.134259 -2.335313 5.666012 0.415751 -0.243685 0.710614 1.791745 0.759904 0.000000 0.000000 0.000000 4.512923 0.015796 -0.250951 -0.985882 -2.743087 0.184075 -18.157341 1.171142 -3.091560 0.000000 0.000000 0.000000 5.053037 -0.105653 -0.427944 -0.001154 -15.251568 -6.254730 -4.107520 -2.919084 -1.525564 0.381274 -17.320596 -51.764293 6.947618 -71.528241 5.851217 0.000000 0.000000 0.000000 5.232297 0.116464 -0.200587 1.929492 -1.113836 10.353806 2.631095 4.531926 -0.336056 -6.445775 26.021098 51.614551 -1.383544 68.706123 -0.771135 0.000000 0.000000 0.000000 
0.840733 60.618988 5.401669 0.000000 0.000000 0.000000 -5.015695 6.320406 1.133623 -96.055129 -7.931637 9.273589 81.200123 6.907934 -0.069275 23.809563 -6.936759 -5.013799 -4.953065 0.355187 -0.260786 0.000000 0.000000 0.000000 -5.147211 7.383021 1.294161 -98.206926 10.474972 -8.967501 83.357562 -3.795644 -2.294303 21.975003 2.019127 6.752964 2.795382 1.629286 0.738448 0.000000 0.000000 0.000000 -4.889552 1.485882 -0.206793 8.360280 -1.355758 -2.200440 7.297273 0.323577 -0.320096 0.427255 1.763344 0.596270 0.000000 0.000000 0.000000 6.159830 -0.073564 -0.386926 -0.567377 -2.430236 -0.552475 -21.920135 1.567903 -3.623961 0.000000 0.000000 0.000000 6.507828 -0.086573 -0.499646 -0.187582 -16.762864 -6.374279 -3.389945 -3.412710 -1.475332 0.185103 -16.894384 -47.069566 7.996716 -78.441663 7.222566 0.000000 0.000000 0.000000 6.946954 0.017700 -0.428139 1.471336 0.793223 10.945707 2.648381 4.704214 -0.218570 -7.860409 23.969094 46.888572 -0.161884 78.586647 -1.484598 0.000000 0.000000 0.000000 
0.758138 60.712379 5.342880 0.000000 0.000000 0.000000 -5.055989 6.280454 1.433198 -96.090585 -7.551233 9.240563 80.976482 7.143485 -0.007839 24.046666 -6.947355 -5.097732 -5.087962 0.352292 -0.127922 0.000000 0.000000 0.000000 -5.079874 7.433677 1.571351 -98.211140 10.618182 -8.935333 83.197373 -3.885646 -2.277024 22.214348 2.002738 6.763876 2.519431 1.563406 0.701451 0.000000 0.000000 0.000000 -4.817987 1.243037 0.162317 7.575335 -1.543857 -2.162589 8.895302 0.218792 -0.474781 0.033564 1.697039 0.190250 0.000000 0.000000 0.000000 7.844981 -0.192263 -0.564694 0.074514 -2.189168 -1.471180 -25.734707 1.724867 -4.074693 0.000000 0.000000 0.000000 8.031245 -0.120468 -0.606200 -0.361172 -18.005367 -6.322051 -2.719552 -3.869552 -1.672116 -1.430202 -16.509288 -40.802748 19.993605 -86.900224 19.542018 0.000000 0.000000 0.000000 8.598516 -0.129647 -0.667140 0.978049 2.826356 11.218834 2.738429 5.022879 0.347588 -11.083428 22.249831 42.033701 44.045687 89.636848 -45.282839 0.000000 0.000000 0.000000 
0.708230 60.720726 5.338181 0.000000 0.000000 0.000000 -4.662398 6.269534 1.657518 -96.473574 -7.153909 9.226771 80.801780 7.463050 -0.007813 24.012392 -7.001894 -5.260578 -5.286329 0.315402 0.137024 0.000000 0.000000 0.000000 -4.672501 7.460261 1.804565 -98.589635 10.794346 -8.869544 83.244297 -4.013175 -2.194907 22.293099 2.011975 6.809540 2.195619 1.527214 0.532263 0.000000 0.000000 0.000000 -4.356460 1.176916 0.600112 6.678927 -1.717050 -2.227638 10.321629 0.078575 -0.673581 -0.092709 1.670041 -0.271795 0.000000 0.000000 0.000000 9.360535 -0.371839 -0.719115 0.877944 -2.000094 -2.476228 -29.404504 1.501479 -4.397263 0.000000 0.000000 0.000000 9.458539 -0.242562 -0.726030 -0.481196 -18.667554 -5.930264 -2.164932 -4.325828 -1.661403 -5.264786 -16.772124 -33.384517 172.605465 -84.112871 172.428781 0.000000 0.000000 0.000000 10.057284 -0.334786 -0.876845 0.492733 4.803331 10.888312 2.930974 5.167238 1.052975 -16.535374 20.917540 37.164026 178.550571 79.719161 -179.585822 0.000000 0.000000 0.000000 
0.709529 60.651527 5.398979 0.000000 0.000000 0.000000 -3.770788 6.278187 1.802152 -97.260698 -6.900528 9.173566 80.749584 7.795025 -0.020973 23.759377 -7.098313 -5.511431 -5.480502 0.266875 0.436284 0.000000 0.000000 0.000000 -3.825302 7.420478 1.975543 -99.393070 11.038991 -8.705074 83.533309 -4.175272 -2.060042 22.129108 2.019491 6.808725 1.930318 1.530903 0.301849 0.000000 0.000000 0.000000 -3.383635 1.272071 0.995879 5.748086 -1.876444 -2.349080 11.515542 -0.097149 -0.876812 -0.055205 1.419225 -0.378119 0.000000 0.000000 0.000000 10.621098 -0.609273 -0.798034 1.759680 -1.831085 -3.370471 -32.903022 0.966512 -4.629159 0.000000 0.000000 0.000000 10.692961 -0.458000 -0.826266 -0.501336 -18.595789 -5.002650 -1.938220 -4.402789 -1.532608 -11.445982 -18.107504 -25.344855 176.910424 -76.575443 176.995555 0.000000 0.000000 0.000000 11.240958 -0.616509 -1.029712 0.104877 6.521524 9.782327 2.893461 5.015884 1.714237 -24.243844 20.329052 32.519429 179.814634 71.050169 179.195764 0.000000 0.000000 0.000000 
